<svg width="48" height="48" viewBox="0 0 48 48" fill="none" xmlns="http://www.w3.org/2000/svg">
<g clip-path="url(#clip0_12108_114900)">
<path d="M1.5 9.5C1.5 5.72876 1.5 3.84315 2.67157 2.67157C3.84315 1.5 5.72876 1.5 9.5 1.5H38.5C42.2712 1.5 44.1569 1.5 45.3284 2.67157C46.5 3.84315 46.5 5.72876 46.5 9.5V38.5C46.5 42.2712 46.5 44.1569 45.3284 45.3284C44.1569 46.5 42.2712 46.5 38.5 46.5H9.5C5.72876 46.5 3.84315 46.5 2.67157 45.3284C1.5 44.1569 1.5 42.2712 1.5 38.5V9.5Z" fill="#60BDCC"/>
<rect x="11" y="8.5" width="1" height="32" rx="0.5" fill="white"/>
<mask id="path-4-inside-1_12108_114900" fill="white">
<path d="M15.5 8.5C15.5 7.55719 15.5 7.08579 15.7929 6.79289C16.0858 6.5 16.5572 6.5 17.5 6.5H50.5C51.4428 6.5 51.9142 6.5 52.2071 6.79289C52.5 7.08579 52.5 7.55719 52.5 8.5V13.5C52.5 14.4428 52.5 14.9142 52.2071 15.2071C51.9142 15.5 51.4428 15.5 50.5 15.5H17.5C16.5572 15.5 16.0858 15.5 15.7929 15.2071C15.5 14.9142 15.5 14.4428 15.5 13.5V8.5Z"/>
</mask>
<path d="M15.5 8.5C15.5 7.55719 15.5 7.08579 15.7929 6.79289C16.0858 6.5 16.5572 6.5 17.5 6.5H50.5C51.4428 6.5 51.9142 6.5 52.2071 6.79289C52.5 7.08579 52.5 7.55719 52.5 8.5V13.5C52.5 14.4428 52.5 14.9142 52.2071 15.2071C51.9142 15.5 51.4428 15.5 50.5 15.5H17.5C16.5572 15.5 16.0858 15.5 15.7929 15.2071C15.5 14.9142 15.5 14.4428 15.5 13.5V8.5Z" fill="url(#paint0_linear_12108_114900)"/>
<path d="M15.5 6.5H52.5H15.5ZM52.5 14.5C52.5 15.3284 51.8284 16 51 16H17C16.1716 16 15.5 15.3284 15.5 14.5C15.5 14.7761 15.9477 15 16.5 15H51.5C52.0523 15 52.5 14.7761 52.5 14.5ZM15.5 15.5V6.5V15.5ZM52.5 6.5V15.5V6.5Z" fill="black" fill-opacity="0.08" mask="url(#path-4-inside-1_12108_114900)"/>
<mask id="path-6-inside-2_12108_114900" fill="white">
<path d="M4.5 21.5C4.5 20.5572 4.5 20.0858 4.79289 19.7929C5.08579 19.5 5.55719 19.5 6.5 19.5H61.5C62.4428 19.5 62.9142 19.5 63.2071 19.7929C63.5 20.0858 63.5 20.5572 63.5 21.5V27.5C63.5 28.4428 63.5 28.9142 63.2071 29.2071C62.9142 29.5 62.4428 29.5 61.5 29.5H6.5C5.55719 29.5 5.08579 29.5 4.79289 29.2071C4.5 28.9142 4.5 28.4428 4.5 27.5V21.5Z"/>
</mask>
<path d="M4.5 21.5C4.5 20.5572 4.5 20.0858 4.79289 19.7929C5.08579 19.5 5.55719 19.5 6.5 19.5H61.5C62.4428 19.5 62.9142 19.5 63.2071 19.7929C63.5 20.0858 63.5 20.5572 63.5 21.5V27.5C63.5 28.4428 63.5 28.9142 63.2071 29.2071C62.9142 29.5 62.4428 29.5 61.5 29.5H6.5C5.55719 29.5 5.08579 29.5 4.79289 29.2071C4.5 28.9142 4.5 28.4428 4.5 27.5V21.5Z" fill="url(#paint1_linear_12108_114900)"/>
<path d="M4.5 19.5H63.5H4.5ZM63.5 28.5C63.5 29.3284 62.8284 30 62 30H6C5.17157 30 4.5 29.3284 4.5 28.5C4.5 28.7761 4.94772 29 5.5 29H62.5C63.0523 29 63.5 28.7761 63.5 28.5ZM4.5 29.5V19.5V29.5ZM63.5 19.5V29.5V19.5Z" fill="black" fill-opacity="0.08" mask="url(#path-6-inside-2_12108_114900)"/>
<mask id="path-8-inside-3_12108_114900" fill="white">
<path d="M15.5 35.5C15.5 34.5572 15.5 34.0858 15.7929 33.7929C16.0858 33.5 16.5572 33.5 17.5 33.5H50.5C51.4428 33.5 51.9142 33.5 52.2071 33.7929C52.5 34.0858 52.5 34.5572 52.5 35.5V40.5C52.5 41.4428 52.5 41.9142 52.2071 42.2071C51.9142 42.5 51.4428 42.5 50.5 42.5H17.5C16.5572 42.5 16.0858 42.5 15.7929 42.2071C15.5 41.9142 15.5 41.4428 15.5 40.5V35.5Z"/>
</mask>
<path d="M15.5 35.5C15.5 34.5572 15.5 34.0858 15.7929 33.7929C16.0858 33.5 16.5572 33.5 17.5 33.5H50.5C51.4428 33.5 51.9142 33.5 52.2071 33.7929C52.5 34.0858 52.5 34.5572 52.5 35.5V40.5C52.5 41.4428 52.5 41.9142 52.2071 42.2071C51.9142 42.5 51.4428 42.5 50.5 42.5H17.5C16.5572 42.5 16.0858 42.5 15.7929 42.2071C15.5 41.9142 15.5 41.4428 15.5 40.5V35.5Z" fill="url(#paint2_linear_12108_114900)"/>
<path d="M15.5 33.5H52.5H15.5ZM52.5 41.5C52.5 42.3284 51.8284 43 51 43H17C16.1716 43 15.5 42.3284 15.5 41.5C15.5 41.7761 15.9477 42 16.5 42H51.5C52.0523 42 52.5 41.7761 52.5 41.5ZM15.5 42.5V33.5V42.5ZM52.5 33.5V42.5V33.5Z" fill="black" fill-opacity="0.08" mask="url(#path-8-inside-3_12108_114900)"/>
<path d="M7.41536 26.25C7.25009 26.25 7.11155 26.1941 6.99974 26.0823C6.88793 25.9705 6.83203 25.8319 6.83203 25.6667C6.83203 25.5014 6.88793 25.3628 6.99974 25.251C7.11155 25.1392 7.25009 25.0833 7.41536 25.0833H15.582C15.7473 25.0833 15.8859 25.1392 15.9977 25.251C16.1095 25.3628 16.1654 25.5014 16.1654 25.6667C16.1654 25.8319 16.1095 25.9705 15.9977 26.0823C15.8859 26.1941 15.7473 26.25 15.582 26.25H7.41536ZM7.41536 23.9167C7.25009 23.9167 7.11155 23.8608 6.99974 23.749C6.88793 23.6372 6.83203 23.4986 6.83203 23.3333C6.83203 23.1681 6.88793 23.0295 6.99974 22.9177C7.11155 22.8059 7.25009 22.75 7.41536 22.75H15.582C15.7473 22.75 15.8859 22.8059 15.9977 22.9177C16.1095 23.0295 16.1654 23.1681 16.1654 23.3333C16.1654 23.4986 16.1095 23.6372 15.9977 23.749C15.8859 23.8608 15.7473 23.9167 15.582 23.9167H7.41536Z" fill="#60BDCC"/>
</g>
<path d="M2.14124 2.14124C1.39288 2.88961 1.06076 3.83855 0.903135 5.01098C0.749971 6.15019 0.749984 7.60582 0.75 9.44358L0.75 9.5V38.5L0.75 38.5564C0.749984 40.3942 0.749971 41.8498 0.903135 42.989C1.06076 44.1614 1.39288 45.1104 2.14124 45.8588C2.88961 46.6071 3.83855 46.9392 5.01098 47.0969C6.15018 47.25 7.60579 47.25 9.44352 47.25H9.5H38.5H38.5565C40.3942 47.25 41.8498 47.25 42.989 47.0969C44.1614 46.9392 45.1104 46.6071 45.8588 45.8588C46.6071 45.1104 46.9392 44.1614 47.0969 42.989C47.25 41.8498 47.25 40.3942 47.25 38.5565V38.5V9.5V9.44352C47.25 7.60579 47.25 6.15018 47.0969 5.01098C46.9392 3.83855 46.6071 2.88961 45.8588 2.14124C45.1104 1.39288 44.1614 1.06076 42.989 0.903135C41.8498 0.749971 40.3942 0.749984 38.5564 0.75L38.5 0.75H9.5L9.44358 0.75C7.60582 0.749984 6.15019 0.749971 5.01098 0.903135C3.83856 1.06076 2.88961 1.39288 2.14124 2.14124Z" stroke="black" stroke-opacity="0.9" stroke-width="1.5" stroke-linejoin="round"/>
<defs>
<linearGradient id="paint0_linear_12108_114900" x1="34" y1="6.5" x2="34" y2="15.5" gradientUnits="userSpaceOnUse">
<stop stop-color="#FFD8C2"/>
<stop offset="1" stop-color="#FFDFCC"/>
</linearGradient>
<linearGradient id="paint1_linear_12108_114900" x1="34" y1="19.5" x2="34" y2="29.5" gradientUnits="userSpaceOnUse">
<stop stop-color="white"/>
<stop offset="1" stop-color="#FAFAFA"/>
</linearGradient>
<linearGradient id="paint2_linear_12108_114900" x1="34" y1="33.5" x2="34" y2="42.5" gradientUnits="userSpaceOnUse">
<stop stop-color="#FFD8C2"/>
<stop offset="1" stop-color="#FFDFCC"/>
</linearGradient>
<clipPath id="clip0_12108_114900">
<path d="M1.5 9.5C1.5 5.72876 1.5 3.84315 2.67157 2.67157C3.84315 1.5 5.72876 1.5 9.5 1.5H38.5C42.2712 1.5 44.1569 1.5 45.3284 2.67157C46.5 3.84315 46.5 5.72876 46.5 9.5V38.5C46.5 42.2712 46.5 44.1569 45.3284 45.3284C44.1569 46.5 42.2712 46.5 38.5 46.5H9.5C5.72876 46.5 3.84315 46.5 2.67157 45.3284C1.5 44.1569 1.5 42.2712 1.5 38.5V9.5Z" fill="white"/>
</clipPath>
</defs>
</svg>
