<svg width="48" height="48" viewBox="0 0 48 48" fill="none" xmlns="http://www.w3.org/2000/svg">
<g clip-path="url(#clip0_12108_114899)">
<path d="M1.5 9.5C1.5 5.72876 1.5 3.84315 2.67157 2.67157C3.84315 1.5 5.72876 1.5 9.5 1.5H38.5C42.2712 1.5 44.1569 1.5 45.3284 2.67157C46.5 3.84315 46.5 5.72876 46.5 9.5V38.5C46.5 42.2712 46.5 44.1569 45.3284 45.3284C44.1569 46.5 42.2712 46.5 38.5 46.5H9.5C5.72876 46.5 3.84315 46.5 2.67157 45.3284C1.5 44.1569 1.5 42.2712 1.5 38.5V9.5Z" fill="black" fill-opacity="0.9"/>
<rect width="14.3333" height="14.3333" transform="translate(1.5 1.5)" fill="#C9B5E8"/>
<rect width="14.3333" height="14.3333" transform="translate(16.832 1.5)" fill="#C9B5E8"/>
<rect width="14.3333" height="14.3333" transform="translate(32.168 1.5)" fill="#FFD4A8"/>
<rect width="14.3333" height="14.3333" transform="translate(1.5 16.8335)" fill="#ABCBFF"/>
<rect width="14.3333" height="14.3333" transform="translate(16.832 16.8335)" fill="#C2E6B3"/>
<rect width="14.3333" height="14.3333" transform="translate(32.168 16.8335)" fill="#FFD4A8"/>
<rect width="14.3333" height="14.3333" transform="translate(1.5 32.1665)" fill="#ABCBFF"/>
<rect width="14.3333" height="14.3333" transform="translate(16.832 32.1665)" fill="#E5E5E5"/>
<rect width="14.3333" height="14.3333" transform="translate(32.168 32.1665)" fill="#E5E5E5"/>
</g>
<path d="M2.14124 2.14124C1.39288 2.88961 1.06076 3.83855 0.903135 5.01098C0.749971 6.15019 0.749984 7.60582 0.75 9.44358L0.75 9.5V38.5L0.75 38.5564C0.749984 40.3942 0.749971 41.8498 0.903135 42.989C1.06076 44.1614 1.39288 45.1104 2.14124 45.8588C2.88961 46.6071 3.83855 46.9392 5.01098 47.0969C6.15018 47.25 7.60579 47.25 9.44352 47.25H9.5H38.5H38.5565C40.3942 47.25 41.8498 47.25 42.989 47.0969C44.1614 46.9392 45.1104 46.6071 45.8588 45.8588C46.6071 45.1104 46.9392 44.1614 47.0969 42.989C47.25 41.8498 47.25 40.3942 47.25 38.5565V38.5V9.5V9.44352C47.25 7.60579 47.25 6.15018 47.0969 5.01098C46.9392 3.83855 46.6071 2.88961 45.8588 2.14124C45.1104 1.39288 44.1614 1.06076 42.989 0.903135C41.8498 0.749971 40.3942 0.749984 38.5564 0.75L38.5 0.75H9.5L9.44358 0.75C7.60582 0.749984 6.15019 0.749971 5.01098 0.903135C3.83856 1.06076 2.88961 1.39288 2.14124 2.14124Z" stroke="black" stroke-opacity="0.9" stroke-width="1.5" stroke-linejoin="round"/>
<defs>
<clipPath id="clip0_12108_114899">
<path d="M1.5 9.5C1.5 5.72876 1.5 3.84315 2.67157 2.67157C3.84315 1.5 5.72876 1.5 9.5 1.5H38.5C42.2712 1.5 44.1569 1.5 45.3284 2.67157C46.5 3.84315 46.5 5.72876 46.5 9.5V38.5C46.5 42.2712 46.5 44.1569 45.3284 45.3284C44.1569 46.5 42.2712 46.5 38.5 46.5H9.5C5.72876 46.5 3.84315 46.5 2.67157 45.3284C1.5 44.1569 1.5 42.2712 1.5 38.5V9.5Z" fill="white"/>
</clipPath>
</defs>
</svg>
